General
Complete name : The Bounty Hunter R.S.A. TS
Format : AVI
Format/Info : Audio Video Interleave
File size : 1.25GB
Duration : 1h 45mn
Overall bit rate : 1500 Kbps

Video
ID : 0
Format : MPEG-4 Visual
Format settings, BVOP : Yes
Format settings, QPel : No
Format settings, GMC : No warppoints
Format settings, Matrix : Default (H.263)
Muxing mode : Packed bitstream
Codec ID : DX50
Codec ID/Hint : DivX 5
Duration : 1h 45mn
Bit rate : 1 500 Kbps
Width : 640 pixels
Height : 272 pixels
Display aspect ratio : 2.35:1
Frame rate : 24.577 fps
Resolution : 8 bits
Colorimetry : 4:2:0
Scan type : Progressive
Bits/(Pixel*Frame) : 0.234
Stream size : 757 MiB (88%)
Title : Video
Writing library : DivX 6.8.5 (UTC 2009-08-20)

Audio
ID : 1
Format : MPEG Audio
Format version : Version 1
Format profile : Layer 3
Mode : Joint stereo
Format_Settings_ModeExtension : MS Stereo
Codec ID : 55
Codec ID/Hint : MP3
Duration : 1h 45mn
Bit rate mode : Constant
Bit rate : 128 Kbps
Channel(s) : 2 channels
Sampling rate : 48.0 KHz
Stream size : 96.9 MiB (11%)
Alignment : Split accross interleaves
Interleave, duration : 41 ms (1.00 video frame)
Interleave, preload duration : 500 ms
Title : Audio



There are many users who are talking and not downloading.First download and then comment.Lock at the latest comments on my torrent and you will see that is real.Here are some screenshots of this torrent
